HIERARCHY
	ROOT pelvis
	{
		OFFSET 0 0 0 
		CHANNELS 6 Xposition Yposition Zposition Zrotation Xrotation Yrotation
		JOINT lfemur_phantom
		{
			OFFSET 0 0.0899607 0 
			CHANNELS 3 Zrotation Xrotation Yrotation
			JOINT lfemur
			{
				OFFSET 0 0 -0.426035 
				CHANNELS 3 Zrotation Xrotation Yrotation
				JOINT ltibia
				{
					OFFSET 0 0 -0.409933 
					CHANNELS 3 Zrotation Xrotation Yrotation
					JOINT lfoot
					{
						OFFSET 0.105631 0 0.00135511 
						CHANNELS 3 Zrotation Xrotation Yrotation
						End Site
						{
							OFFSET 0.0352103 0 0.000451703
						}
					}
				}
			}
		}
		JOINT rfemur_phantom
		{
			OFFSET 0 -0.0899607 0 
			CHANNELS 3 Zrotation Xrotation Yrotation
			JOINT rfemur
			{
				OFFSET 0 0 -0.430137 
				CHANNELS 3 Zrotation Xrotation Yrotation
				JOINT rtibia
				{
					OFFSET 0 0 -0.390377 
					CHANNELS 3 Zrotation Xrotation Yrotation
					JOINT rfoot
					{
						OFFSET 0.106801 0 -0.00121178 
						CHANNELS 3 Zrotation Xrotation Yrotation
						End Site
						{
							OFFSET 0.0356003 0 -0.000403927
						}
					}
				}
			}
		}
		JOINT lowerback_phantom
		{
			OFFSET -0.05 0 0.107967 
			CHANNELS 3 Zrotation Xrotation Yrotation
			JOINT lowerback
			{
				OFFSET 0.0167886 0 0.161801 
				CHANNELS 3 Zrotation Xrotation Yrotation
				JOINT upperback
				{
					OFFSET 0 0 0 
					CHANNELS 3 Zrotation Xrotation Yrotation
					JOINT lclavicle_phantom
					{
						OFFSET 0 0 0.199349 
						CHANNELS 3 Zrotation Xrotation Yrotation
						JOINT lclavicle
						{
							OFFSET 0 0.164108 -0.0174105 
							CHANNELS 3 Zrotation Xrotation Yrotation
							JOINT lhumerus
							{
								OFFSET 0 0 -0.275026 
								CHANNELS 3 Zrotation Xrotation Yrotation
								JOINT lradius
								{
									OFFSET 0 0 -0.248775 
									CHANNELS 3 Zrotation Xrotation Yrotation
									End Site
									{
										OFFSET 0 0 -0.082925
									}
								}
							}
						}
					}
					JOINT rclavicle_phantom
					{
						OFFSET 0 0 0.199349 
						CHANNELS 3 Zrotation Xrotation Yrotation
						JOINT rclavicle
						{
							OFFSET 0 -0.165322 -0.0298984 
							CHANNELS 3 Zrotation Xrotation Yrotation
							JOINT rhumerus
							{
								OFFSET 0 0 -0.273337 
								CHANNELS 3 Zrotation Xrotation Yrotation
								JOINT rradius
								{
									OFFSET 0 0 -0.254845 
									CHANNELS 3 Zrotation Xrotation Yrotation
									End Site
									{
										OFFSET 0 0 -0.0849483
									}
								}
							}
						}
					}
					JOINT LowerNeck_phantom
					{
						OFFSET 0 0 0.199349 
						CHANNELS 3 Zrotation Xrotation Yrotation
						JOINT LowerNeck
						{
							OFFSET -0.0127292 -0.000602123 0.105365 
							CHANNELS 3 Zrotation Xrotation Yrotation
							End Site
							{
								OFFSET -0.00424307 -0.000200708 0.0351217
							}
						}
					}
				}
			}
		}
	}
MOTION
Frames:	16
Frame Time:	0.0166667
-0.00191395 0.894722 1.66533e-016 82.0051 -57.6617 80.9404 23.3743 -0.412269 0.410564 27.0982 1.878 3.66456 -3.17876 -10.1687 27.5379 -1.03158e-005 4.9305e-006 9.52585 -3.17752 -13.0006 -6.76764 -22.9118 -8.42247 19.1136 4.83904 8.52217 15.2617 -2.03005e-006 4.00882e-007 26.5192 1.7179 -3.34079 5.73204 3.17382 1.28959 2.88386 -0 0 -0 -3.8113 -9.37142 -0.6215 17.8681 29.3988 -15.6396 -0.813101 -0.995347 -129.248 3.35734e-006 6.99777 -19.151 1.93744 3.50198 -0.118389 22.014 -34.8401 -20.6548 12.6506 13.6666 -133.531 -1.2248e-005 -6.67823 -14.2573 0.333598 3.71657 38.5089 26.5164 -28.8345 -56.5754 
-0.00253857 0.895236 -0.001506 82.418 -57.8966 81.2845 22.9738 -0.29129 0.332574 27.6481 1.96352 3.74213 -3.17076 -10.0885 27.4506 -1.62988e-005 3.33204e-006 9.44531 -3.69632 -12.8487 -7.21061 -22.101 -8.3725 19.7264 4.63733 8.15344 15.2334 7.92317e-008 -1.34063e-007 26.2278 1.86457 -3.17603 5.77157 3.36694 1.48213 2.90814 -0 0 -0 -3.98694 -9.52138 -0.660538 18.2684 29.4079 -15.9712 -0.997124 -1.21898 -129.288 1.10002e-006 7.06811 -19.016 1.92905 3.22135 -0.108441 23.4519 -34.6663 -20.2012 12.2593 13.5166 -132.913 6.26979e-006 -5.73425 -14.0787 0.390199 3.28698 38.4697 26.6044 -29.1007 -56.2275 
-0.00279466 0.895669 -0.002418 82.8718 -58.0681 81.6536 22.8581 -0.102553 0.243192 27.8712 2.02676 3.82604 -3.16976 -10.025 27.3527 1.61261e-005 5.88396e-007 9.41712 -4.03921 -12.6339 -7.51862 -21.144 -8.2658 20.3914 4.46043 7.59106 14.4379 -1.92431e-006 -3.43531e-007 25.5767 1.97635 -2.95183 5.79326 3.52527 1.59361 2.91185 -0 0 -0 -4.13927 -9.55147 -0.688008 18.6135 29.255 -16.1669 -1.08094 -1.31986 -129.323 -3.46427e-006 6.86232 -18.8855 1.96919 3.00828 -0.103384 24.7725 -34.5459 -19.7565 11.9244 13.3888 -132.364 -5.08963e-006 -5.42229 -13.816 0.368781 3.01087 38.4488 26.7133 -29.4119 -55.6573 
-0.00286076 0.896053 -0.003062 83.3067 -58.1961 82.0049 22.8112 0.0957733 0.157496 27.99 2.07916 3.90506 -3.16968 -9.98046 27.2799 1.0887e-005 2.1888e-007 9.3817 -4.23532 -12.4169 -7.72991 -20.2119 -8.12107 20.9919 4.45734 7.27635 13.3889 -1.23684e-007 2.07356e-007 24.8533 2.05668 -2.75612 5.80683 3.67266 1.71764 2.91749 -0 0 -0 -4.28011 -9.57806 -0.713463 18.9093 29.1028 -16.3097 -1.19701 -1.45876 -129.378 2.45492e-006 6.76495 -18.7502 2.0071 2.79178 -0.0978007 25.9978 -34.4758 -19.3869 11.7869 13.4788 -131.837 1.57729e-006 -5.04425 -13.5705 0.336855 2.72064 38.4355 26.8419 -29.6738 -55.0772 
-0.0026339 0.896363 -0.0033 83.699 -58.2597 82.311 22.8218 0.302087 0.0917718 28.0094 2.11049 3.96047 -3.16978 -9.95499 27.2374 -6.37005e-007 -2.70178e-006 9.35918 -4.25897 -12.1882 -7.80289 -19.2861 -7.90294 21.4514 4.57322 7.11823 12.158 1.30258e-006 -1.17972e-006 24.1978 2.10279 -2.58704 5.80385 3.79702 1.82235 2.92307 -0 0 -0 -4.40458 -9.59912 -0.735889 19.1347 28.9651 -16.3831 -1.32862 -1.61469 -129.457 3.73888e-006 6.7652 -18.6186 2.05667 2.61459 -0.0938594 27.0889 -34.4718 -19.071 11.7993 13.7227 -131.367 5.72579e-006 -4.70955 -13.3153 0.320634 2.43621 38.4338 26.9438 -29.8223 -54.4536 
-0.00209631 0.89659 -0.003186 84.0081 -58.2529 82.5275 22.8182 0.494948 0.0817571 28.0015 2.11076 3.96228 -3.16585 -9.94175 27.2361 1.40662e-006 -3.83256e-007 9.35303 -4.17497 -11.9684 -7.74159 -18.5195 -7.65353 21.6823 4.66895 6.97961 11.0955 -1.31157e-006 2.59318e-007 23.7999 2.13543 -2.46393 5.79873 3.89333 1.8997 2.9293 -0 0 -0 -4.50536 -9.63857 -0.755856 19.2805 28.8793 -16.431 -1.48413 -1.79798 -129.548 -1.03316e-005 6.82238 -18.4945 2.10073 2.48536 -0.091136 28.0873 -34.5049 -18.7746 11.6571 13.7824 -130.892 -1.22873e-005 -4.52819 -13.111 0.334064 2.15863 38.4457 27.008 -29.8335 -53.8452 
-0.00124979 0.896715 -0.002766 84.2037 -58.1783 82.633 22.7863 0.656364 0.136438 27.9882 2.07717 3.90164 -3.15929 -9.94343 27.2735 4.66332e-006 1.37817e-006 9.36942 -4.02258 -11.7821 -7.5641 -18.097 -7.45251 21.6482 4.71763 6.85553 10.3417 8.30759e-007 1.10942e-007 23.5676 2.17964 -2.40568 5.7951 3.96492 1.9517 2.94195 -0 0 -0 -4.58262 -9.69847 -0.773605 19.3826 28.8265 -16.5087 -1.68202 -2.03184 -129.633 6.65736e-006 6.71487 -18.414 2.10798 2.39245 -0.0880344 28.999 -34.5348 -18.4947 11.2345 13.5092 -130.374 6.79392e-006 -4.42593 -13.01 0.352186 1.90961 38.4622 27.0666 -29.7516 -53.2796 
-0.000128978 0.896725 -0.002035 84.2878 -58.041 82.654 22.6744 0.776185 0.225042 28.0184 2.01869 3.78734 -3.15028 -9.96005 27.3484 4.99983e-006 -2.92864e-007 9.40445 -3.81573 -11.633 -7.302 -18.0798 -7.33157 21.3502 4.81302 6.86127 9.82326 1.2048e-006 8.00013e-007 23.4438 2.24368 -2.41251 5.78147 4.00239 1.97566 2.95583 -0 0 -0 -4.61353 -9.7575 -0.783539 19.4426 28.7593 -16.6303 -1.93054 -2.32646 -129.705 4.88242e-006 6.33976 -18.3604 2.08093 2.31744 -0.0841812 29.7864 -34.5325 -18.2492 10.7301 13.1236 -129.848 2.08468e-006 -4.21495 -12.9978 0.354016 1.70463 38.4788 27.1596 -29.6438 -52.7529 
0.00125158 0.896608 -0.000968 84.284 -57.8468 82.6294 22.5829 0.863974 0.275353 27.9817 1.97278 3.7072 -3.14754 -9.99406 27.4186 4.33162e-006 -3.6e-006 9.44777 -3.61043 -11.5002 -6.99554 -18.3953 -7.25926 20.8045 4.97678 7.03315 9.58006 -6.22518e-007 3.0425e-006 23.4647 2.32204 -2.47344 5.74404 4.00367 1.97758 2.95854 -0 0 -0 -4.58655 -9.8093 -0.783032 19.4417 28.6735 -16.773 -2.27117 -2.73225 -129.76 -3.23815e-006 5.74562 -18.3537 2.04418 2.24934 -0.0802644 30.4445 -34.4971 -18.0233 10.3775 12.8982 -129.365 1.32215e-005 -3.8755 -12.9864 0.339842 1.51699 38.5209 27.2684 -29.5243 -52.3015 
0.00292177 0.896383 0.000402 84.1974 -57.5958 82.5498 22.3843 0.923334 0.306967 27.9885 1.94254 3.6495 -3.14291 -10.0331 27.5064 -3.22209e-006 2.22019e-006 9.47499 -3.40744 -11.3811 -6.61461 -19.1231 -7.22676 19.9411 5.24947 7.50762 9.8854 8.32948e-007 1.32812e-006 23.8104 2.40264 -2.58178 5.68806 3.98436 1.96448 2.94093 -0 0 -0 -4.52137 -9.856 -0.775497 19.4118 28.5661 -16.92 -2.74142 -3.29605 -129.788 -4.99892e-006 4.89839 -18.4535 2.01895 2.18212 -0.0769048 31.027 -34.4399 -17.7685 10.2214 12.8958 -128.936 -2.28937e-005 -3.61502 -12.9448 0.334938 1.33781 38.5873 27.3508 -29.3484 -51.9142 
0.00486145 0.896029 0.002048 84.0048 -57.286 82.3942 22.0883 0.938823 0.315026 28.0373 1.93915 3.6357 -3.14014 -10.0811 27.5981 -6.61754e-006 4.19553e-006 9.48869 -3.28255 -11.2958 -6.18908 -20.1514 -7.17469 18.7957 5.42089 8.08128 10.9791 -1.39985e-006 1.81513e-007 24.8598 2.47074 -2.74082 5.60281 3.98359 1.92742 2.91294 -0 0 -0 -4.45636 -9.88948 -0.766873 19.3005 28.445 -17.0268 -3.15988 -3.79793 -129.81 -2.20259e-006 4.13615 -18.5451 2.00428 2.13132 -0.074568 31.54 -34.3833 -17.4613 10.2254 13.0708 -128.577 6.12945e-006 -3.49616 -12.8746 0.35411 1.20855 38.6319 27.3572 -29.0833 -51.5257 
0.00703554 0.895567 0.003961 83.7207 -56.9249 82.1731 21.6291 0.911474 0.313694 28.2081 1.95385 3.63708 -3.13615 -10.1352 27.7053 1.75455e-006 -2.08839e-006 9.50141 -3.24985 -11.2618 -5.73718 -21.4525 -7.13105 17.5321 5.4006 8.5348 12.5025 1.06352e-006 3.98359e-007 26.3878 2.52385 -2.9432 5.50462 4.00361 1.86281 2.8695 -0 0 -0 -4.39033 -9.90529 -0.756664 19.0685 28.3159 -17.0761 -3.36577 -4.04161 -129.843 3.20081e-006 3.71196 -18.5161 2.00996 2.11257 -0.0741232 31.9447 -34.3313 -17.1225 10.3591 13.3751 -128.316 -1.83239e-005 -3.3636 -12.7131 0.397928 1.13122 38.6212 27.3015 -28.7243 -51.1216 
0.00939641 0.895098 0.006192 83.4452 -56.5445 81.9666 21.0077 0.893614 0.292034 28.5233 1.98021 3.63793 -3.12424 -10.1804 27.8386 7.31626e-006 2.41655e-006 9.51395 -3.41536 -11.221 -5.35628 -22.6025 -7.11627 16.5716 5.33358 8.75614 13.4803 -4.20753e-007 4.1919e-007 27.5911 2.5848 -3.14465 5.40805 4.03217 1.80033 2.81601 -0 0 -0 -4.31489 -9.9459 -0.74663 18.7538 28.2173 -17.1027 -3.41105 -4.08994 -129.886 3.48238e-006 3.55366 -18.3799 2.01094 2.12117 -0.0744595 32.2756 -34.2887 -16.7792 10.4958 13.659 -128.116 1.24664e-005 -3.2471 -12.5132 0.44476 1.04152 38.5495 27.2219 -28.2821 -50.7284 
0.0119404 0.894831 0.008845 83.3994 -56.1846 81.943 20.3038 1.01708 0.214187 28.9393 2.0168 3.64184 -3.10729 -10.23 28.0036 7.34014e-006 4.74277e-007 9.54204 -3.5825 -11.0228 -5.0075 -23.4174 -7.13531 16.0029 5.35959 8.84549 13.6124 -1.89194e-006 -4.68427e-007 28.0908 2.66213 -3.22727 5.33939 4.06721 1.77456 2.76153 -0 0 -0 -4.22224 -10.0579 -0.738685 18.4565 28.1513 -17.1724 -3.44501 -4.12771 -129.907 1.57864e-006 3.3452 -18.2537 1.96678 2.14842 -0.0737612 32.5917 -34.2842 -16.4579 10.5451 13.8232 -127.923 4.64475e-007 -3.19788 -12.3488 0.497892 0.899418 38.4335 27.1013 -27.797 -50.4001 
0.0146302 0.894844 0.01187 83.6497 -55.8542 82.1283 19.5191 1.3275 0.113577 29.4549 2.04769 3.62034 -3.07872 -10.2717 28.215 -6.45415e-006 7.00198e-006 9.57826 -3.62568 -10.6461 -4.66347 -23.9542 -7.16617 15.6843 5.45677 8.95848 13.4724 -5.37049e-007 4.05417e-007 28.137 2.71862 -3.13839 5.31952 4.1136 1.79681 2.73125 -0 0 -0 -4.08681 -10.243 -0.727927 18.1561 28.0722 -17.2636 -3.44628 -4.13016 -129.901 4.68623e-006 3.13702 -18.1385 1.86185 2.17042 -0.0705367 32.9384 -34.3511 -16.1764 10.4849 13.8472 -127.713 -1.10531e-005 -3.25899 -12.2815 0.50812 0.709454 38.2614 26.9987 -27.3654 -50.0805 
0.0174205 0.89506 0.015115 84.0998 -55.5243 82.4341 18.726 1.77289 0.0400587 29.9767 2.05025 3.54916 -3.03688 -10.2996 28.473 -7.32972e-006 1.59568e-006 9.62786 -3.61908 -10.1817 -4.34349 -24.3699 -7.21288 15.492 5.57896 9.1734 13.5037 -1.40603e-006 1.65299e-007 28.0156 2.70504 -2.91926 5.33498 4.14829 1.85813 2.73216 -0 0 -0 -3.90021 -10.4464 -0.708226 17.7953 27.9091 -17.2639 -3.3143 -3.97193 -129.897 5.98237e-006 3.11768 -17.9653 1.74386 2.1589 -0.0657145 33.2783 -34.4677 -15.9394 10.4277 13.857 -127.539 8.95718e-006 -3.34857 -12.2726 0.475687 0.514118 38.0984 26.9053 -27.0655 -49.8041 
